<svg width="0" height="0" class="hidden">
  <symbol xmlns="http://www.w3.org/2000/svg" id="iconFacebook" viewBox="0 0 21 20" fill="none">
<path d="M20.0827 9.69859C20.0827 4.40456 15.7934 0.115234 10.4994 0.115234C5.20534 0.115234 0.916016 4.40456 0.916016 9.69859C0.916016 14.4818 4.42051 18.4465 9.00197 19.166V12.4689H6.56749V9.69859H9.00197V7.58716C9.00197 5.18552 10.4317 3.85893 12.6216 3.85893C13.6704 3.85893 14.7671 4.04596 14.7671 4.04596V6.40315H13.5583C12.3681 6.40315 11.9968 7.142 11.9968 7.89978V9.69859H14.6546L14.2295 12.4689H11.9968V19.166C16.5782 18.4465 20.0827 14.4818 20.0827 9.69859Z" fill="#161722"/>
</symbol>
  <symbol xmlns="http://www.w3.org/2000/svg" id="iconYoutube" viewBox="0 0 24 17" fill="none">
<path d="M23.3638 3.05154C23.0977 2.0495 22.3136 1.26033 21.3181 0.992514C19.5136 0.505859 12.2777 0.505859 12.2777 0.505859C12.2777 0.505859 5.04184 0.505859 3.23729 0.992514C2.24173 1.26037 1.45765 2.0495 1.19153 3.05154C0.708008 4.86778 0.708008 8.65721 0.708008 8.65721C0.708008 8.65721 0.708008 12.4466 1.19153 14.2629C1.45765 15.2649 2.24173 16.0212 3.23729 16.289C5.04184 16.7757 12.2777 16.7757 12.2777 16.7757C12.2777 16.7757 19.5135 16.7757 21.3181 16.289C22.3136 16.0212 23.0977 15.2649 23.3638 14.2629C23.8473 12.4466 23.8473 8.65721 23.8473 8.65721C23.8473 8.65721 23.8473 4.86778 23.3638 3.05154ZM9.91113 12.0977V5.21669L15.9589 8.6573L9.91113 12.0977Z" fill="#161722"/>
</symbol>
  <symbol xmlns="http://www.w3.org/2000/svg" id="iconLinkdin" viewBox="0 0 18 17" fill="none">
<path d="M15.9736 0.504883H2.02378C1.38458 0.504883 0.865234 1.0315 0.865234 1.67796V15.6023C0.865234 16.2488 1.38458 16.7754 2.02378 16.7754H15.9736C16.6128 16.7754 17.1357 16.2488 17.1357 15.6023V1.67796C17.1357 1.0315 16.6128 0.504883 15.9736 0.504883ZM5.7827 14.451H3.37118V6.68622H5.78634V14.451H5.7827ZM4.57694 5.62573C3.80337 5.62573 3.1787 4.99743 3.1787 4.22749C3.1787 3.45754 3.80337 2.82924 4.57694 2.82924C5.34689 2.82924 5.97519 3.45754 5.97519 4.22749C5.97519 5.00106 5.35052 5.62573 4.57694 5.62573ZM14.8223 14.451H12.4108V10.674C12.4108 9.77326 12.3926 8.61471 11.1578 8.61471C9.90118 8.61471 9.70869 9.5953 9.70869 10.6086V14.451H7.29717V6.68622H9.61063V7.74671H9.64332C9.96655 7.13657 10.7547 6.49374 11.9277 6.49374C14.3683 6.49374 14.8223 8.10263 14.8223 10.1946V14.451Z" fill="#161722"/>
</symbol>
  <symbol xmlns="http://www.w3.org/2000/svg" id="iconTwitter" viewBox="0 0 22 17" fill="none">
<path d="M18.9572 4.55956C18.9699 4.7375 18.9699 4.91548 18.9699 5.09342C18.9699 10.5208 14.839 16.7745 7.28885 16.7745C4.96279 16.7745 2.802 16.1008 0.984375 14.9315C1.31486 14.9696 1.6326 14.9823 1.9758 14.9823C3.89507 14.9823 5.66188 14.3341 7.07276 13.2282C5.26785 13.1901 3.75528 12.008 3.23414 10.381C3.48837 10.4191 3.74257 10.4446 4.00952 10.4446C4.37811 10.4446 4.74675 10.3937 5.08991 10.3048C3.20875 9.92343 1.79782 8.27107 1.79782 6.2755V6.22468C2.34436 6.52973 2.97994 6.72039 3.65356 6.74578C2.54773 6.00855 1.82325 4.75021 1.82325 3.32661C1.82325 2.56399 2.02659 1.8649 2.3825 1.25479C4.4035 3.74607 7.44136 5.373 10.8478 5.55098C10.7842 5.24593 10.7461 4.92819 10.7461 4.61042C10.7461 2.3479 12.5764 0.504883 14.8516 0.504883C16.0337 0.504883 17.1014 1.0006 17.8513 1.80137C18.7792 1.62343 19.6689 1.28022 20.457 0.80994C20.1519 1.76326 19.5037 2.56403 18.6521 3.07242C19.4783 2.98349 20.2791 2.75465 21.0163 2.43691C20.4571 3.25036 19.758 3.97484 18.9572 4.55956Z" fill="var(--c-bg)"/>
</symbol>
  <symbol xmlns="http://www.w3.org/2000/svg" id="iconInst" viewBox="0 0 19 19" fill="none">
<path d="M9.71085 4.91837C7.09767 4.91837 4.98987 7.02618 4.98987 9.63936C4.98987 12.2525 7.09767 14.3603 9.71085 14.3603C12.324 14.3603 14.4318 12.2525 14.4318 9.63936C14.4318 7.02618 12.324 4.91837 9.71085 4.91837ZM9.71085 12.7086C8.02214 12.7086 6.64159 11.3322 6.64159 9.63936C6.64159 7.94654 8.01803 6.5701 9.71085 6.5701C11.4037 6.5701 12.7801 7.94654 12.7801 9.63936C12.7801 11.3322 11.3996 12.7086 9.71085 12.7086ZM15.7261 4.72526C15.7261 5.33747 15.233 5.82641 14.6249 5.82641C14.0127 5.82641 13.5238 5.33336 13.5238 4.72526C13.5238 4.11716 14.0168 3.62411 14.6249 3.62411C15.233 3.62411 15.7261 4.11716 15.7261 4.72526ZM18.8529 5.84285C18.783 4.3678 18.4461 3.06121 17.3655 1.98471C16.289 0.908208 14.9824 0.571288 13.5074 0.49733C11.9871 0.411046 7.43048 0.411046 5.91023 0.49733C4.43929 0.56718 3.1327 0.904099 2.05209 1.9806C0.971482 3.0571 0.638671 4.36369 0.564713 5.83874C0.478429 7.35899 0.478429 11.9156 0.564713 13.4359C0.634562 14.9109 0.971482 16.2175 2.05209 17.294C3.1327 18.3705 4.43518 18.7074 5.91023 18.7814C7.43048 18.8677 11.9871 18.8677 13.5074 18.7814C14.9824 18.7115 16.289 18.3746 17.3655 17.294C18.442 16.2175 18.7789 14.9109 18.8529 13.4359C18.9392 11.9156 18.9392 7.3631 18.8529 5.84285ZM16.8889 15.0671C16.5684 15.8724 15.948 16.4928 15.1385 16.8174C13.9265 17.2981 11.0503 17.1872 9.71085 17.1872C8.37139 17.1872 5.49114 17.294 4.28316 16.8174C3.47784 16.4969 2.85741 15.8765 2.53282 15.0671C2.05209 13.855 2.16303 10.9788 2.16303 9.63936C2.16303 8.2999 2.0562 5.41965 2.53282 4.21167C2.8533 3.40634 3.47373 2.78592 4.28316 2.46133C5.49525 1.9806 8.37139 2.09154 9.71085 2.09154C11.0503 2.09154 13.9306 1.98471 15.1385 2.46133C15.9439 2.78181 16.5643 3.40224 16.8889 4.21167C17.3696 5.42375 17.2587 8.2999 17.2587 9.63936C17.2587 10.9788 17.3696 13.8591 16.8889 15.0671Z" fill="var(--c-bg)"/>
</symbol>
  <symbol xmlns="http://www.w3.org/2000/svg" id="arrowLink" viewBox="0 0 18 18" fill="none">
    <path d="M1.5 16.5L16.5 1.5"  stroke-width="3" stroke-linecap="round" stroke-linejoin="round" />
    <path d="M1.5 1.5H16.5V16.5"  stroke-width="3" stroke-linecap="round" stroke-linejoin="round" />
  </symbol>
  <symbol xmlns="http://www.w3.org/2000/svg" id="iconTel" viewBox="0 0 14 14" fill="none">
    <path
      d="M12.6921 1.47796L10.2102 0.905202C9.94052 0.843153 9.66369 0.983956 9.55391 1.23692L8.4084 3.90978C8.30817 4.14366 8.37499 4.4181 8.57307 4.578L10.0193 5.76169C9.16014 7.59212 7.65905 9.11469 5.79043 9.99053L4.60674 8.54433C4.44446 8.34625 4.1724 8.27943 3.93853 8.37966L1.26567 9.52517C1.01031 9.63733 0.869511 9.91417 0.93156 10.1838L1.50431 12.6658C1.56398 12.9235 1.79308 13.1097 2.06275 13.1097C8.17453 13.1097 13.136 8.15772 13.136 2.03639C13.136 1.76911 12.9523 1.53762 12.6921 1.47796Z"
      fill="var(--c-white)" />
  </symbol>
  <symbol xmlns="http://www.w3.org/2000/svg" id="iconMail" viewBox="0 0 16 12" fill="none">
    <path
      d="M14.4627 0H2.09912C1.29904 0 0.644531 0.654477 0.644531 1.45456V10.5454C0.644531 11.3455 1.29904 12 2.09912 12H14.4627C15.2627 12 15.9173 11.3455 15.9173 10.5454V1.45456C15.9173 0.654477 15.2627 0 14.4627 0ZM14.2809 3.09092L8.2809 7.09091L2.2809 3.09092V1.63636L8.2809 5.63635L14.2809 1.63636V3.09092Z"
      fill="var(--c-white)" />
  </symbol>
  <symbol xmlns="http://www.w3.org/2000/svg" id="iconPin" viewBox="0 0 11 16" fill="none">
    <path
      d="M5.57227 0.753906C2.76803 0.753906 0.5 3.02193 0.5 5.82617C0.5 9.63037 5.57227 15.2461 5.57227 15.2461C5.57227 15.2461 10.6445 9.63037 10.6445 5.82617C10.6445 3.02193 8.3765 0.753906 5.57227 0.753906ZM5.57227 7.6377C4.5723 7.6377 3.76074 6.82613 3.76074 5.82617C3.76074 4.82621 4.5723 4.01465 5.57227 4.01465C6.57223 4.01465 7.38379 4.82621 7.38379 5.82617C7.38379 6.82613 6.57223 7.6377 5.57227 7.6377Z"
      fill="var(--c-white)" />
  </symbol>

  <symbol xmlns="http://www.w3.org/2000/svg" id="logo" viewBox="0 0 91 25" fill="none">
    <path
      d="M11.396 24.6547H0V23.5447C1.01133 23.5447 1.76367 23.4584 2.257 23.2857C2.775 23.113 3.12033 22.7677 3.293 22.2497C3.49033 21.7317 3.589 20.967 3.589 19.9557V4.8227C3.589 3.83604 3.49033 3.10837 3.293 2.6397C3.12033 2.14637 2.775 1.8257 2.257 1.6777C1.76367 1.5297 1.01133 1.4557 0 1.4557V0.345703H9.99C12.1853 0.345703 13.949 0.580036 15.281 1.0487C16.613 1.4927 17.575 2.14637 18.167 3.0097C18.759 3.84837 19.055 4.88437 19.055 6.1177C19.055 7.77037 18.5617 9.01604 17.575 9.8547C16.5883 10.6687 15.3303 11.2854 13.801 11.7047V11.8527C14.8617 12.0254 15.873 12.346 16.835 12.8147C17.8217 13.2834 18.6357 13.9494 19.277 14.8127C19.9183 15.6514 20.239 16.749 20.239 18.1057C20.239 20.2024 19.4497 21.818 17.871 22.9527C16.317 24.0874 14.1587 24.6547 11.396 24.6547ZM9.657 23.2857C10.4463 23.2857 11.2357 23.2364 12.025 23.1377C12.8143 23.039 13.5297 22.8294 14.171 22.5087C14.837 22.1634 15.3673 21.6577 15.762 20.9917C16.1567 20.301 16.354 19.3637 16.354 18.1797C16.354 16.7737 16.021 15.6884 15.355 14.9237C14.7137 14.1344 13.875 13.5917 12.839 13.2957C11.8277 12.975 10.7423 12.8147 9.583 12.8147H6.993V23.1747C7.437 23.1994 7.881 23.224 8.325 23.2487C8.769 23.2734 9.213 23.2857 9.657 23.2857ZM6.993 1.8997V11.2607H9.509C11.7537 11.2607 13.2953 10.8784 14.134 10.1137C14.9727 9.32437 15.392 8.09104 15.392 6.4137C15.392 4.95837 14.9233 3.8237 13.986 3.0097C13.0733 2.1957 11.4823 1.7887 9.213 1.7887C8.86767 1.7887 8.49767 1.80104 8.103 1.8257C7.733 1.8257 7.363 1.85037 6.993 1.8997Z"
      fill="white" />
    <path
      d="M42.6301 24.6547H22.8721V23.5447C23.8834 23.5447 24.6357 23.483 25.1291 23.3597C25.6471 23.2117 25.9924 22.9034 26.1651 22.4347C26.3624 21.966 26.4611 21.2507 26.4611 20.2887V4.8597C26.4611 3.92237 26.3624 3.20704 26.1651 2.7137C25.9924 2.22037 25.6471 1.88737 25.1291 1.7147C24.6357 1.54204 23.8834 1.4557 22.8721 1.4557V0.345703H42.2971L42.5191 6.4137H41.3351C41.1624 5.18037 40.8911 4.25537 40.5211 3.6387C40.1757 2.99737 39.5961 2.5657 38.7821 2.3437C37.9927 2.1217 36.8334 2.0107 35.3041 2.0107H29.8651V11.4087H34.1941C35.3287 11.4087 36.1921 11.31 36.7841 11.1127C37.3761 10.9154 37.7831 10.5454 38.0051 10.0027C38.2271 9.46004 38.3381 8.69537 38.3381 7.7087H39.5221V16.2927H38.3381C38.3381 15.2814 38.2271 14.529 38.0051 14.0357C37.7831 13.5424 37.3761 13.2217 36.7841 13.0737C36.1921 12.9257 35.3287 12.8517 34.1941 12.8517H29.8651V23.0267H34.6381C36.0687 23.0267 37.2157 22.965 38.0791 22.8417C38.9671 22.6937 39.6577 22.4347 40.1511 22.0647C40.6691 21.6947 41.0884 21.1644 41.4091 20.4737C41.7544 19.783 42.1121 18.8827 42.4821 17.7727H43.6661L42.6301 24.6547Z"
      fill="white" />
    <path
      d="M56.6892 24.6547H46.2922V23.5447C47.2295 23.5447 47.9325 23.4707 48.4012 23.3227C48.8699 23.1747 49.1782 22.854 49.3262 22.3607C49.4989 21.8674 49.5852 21.1027 49.5852 20.0667V4.1937C49.5852 3.50304 49.5112 2.96037 49.3632 2.5657C49.2399 2.17104 48.9439 1.88737 48.4752 1.7147C48.0065 1.54204 47.2789 1.4557 46.2922 1.4557V0.345703H55.3942C57.2442 0.345703 58.8845 0.530703 60.3152 0.900702C61.7705 1.24604 62.9052 1.8627 63.7192 2.7507C64.5332 3.61404 64.9402 4.83504 64.9402 6.4137C64.9402 7.79504 64.6195 8.91737 63.9782 9.7807C63.3615 10.644 62.5722 11.3224 61.6102 11.8157C60.6729 12.2844 59.6985 12.642 58.6872 12.8887V13.0367C59.1065 13.2834 59.5752 13.715 60.0932 14.3317C60.6359 14.9237 61.3265 15.8117 62.1652 16.9957C63.0039 18.155 64.1015 19.709 65.4582 21.6577C66.0502 22.4717 66.6175 22.9897 67.1602 23.2117C67.7275 23.4337 68.4305 23.5447 69.2692 23.5447V24.6547H63.1642C62.1529 23.1254 61.3019 21.855 60.6112 20.8437C59.9452 19.8077 59.3779 18.9444 58.9092 18.2537C58.4405 17.5384 58.0212 16.9094 57.6512 16.3667C57.2812 15.824 56.9112 15.2814 56.5412 14.7387C56.1712 14.1714 55.8259 13.826 55.5052 13.7027C55.2092 13.5794 54.7282 13.5177 54.0622 13.5177H53.0262V20.0667C53.0262 21.078 53.1125 21.8427 53.2852 22.3607C53.4579 22.854 53.8032 23.1747 54.3212 23.3227C54.8392 23.4707 55.6285 23.5447 56.6892 23.5447V24.6547ZM53.0262 12.0747L54.4322 12.1117C55.7889 12.0377 56.9729 11.8157 57.9842 11.4457C58.9955 11.0757 59.7849 10.496 60.3522 9.7067C60.9195 8.91737 61.2032 7.86904 61.2032 6.5617C61.2032 5.0817 60.7469 3.92237 59.8342 3.0837C58.9215 2.22037 57.4662 1.7887 55.4682 1.7887C55.0735 1.7887 54.6665 1.80104 54.2472 1.8257C53.8279 1.8257 53.4209 1.85037 53.0262 1.8997V12.0747Z"
      fill="white" />
    <path
      d="M81.8188 24.6547H70.4229V23.5447C71.4342 23.5447 72.1865 23.4584 72.6798 23.2857C73.1978 23.113 73.5432 22.7677 73.7159 22.2497C73.9132 21.7317 74.0118 20.967 74.0118 19.9557V4.8227C74.0118 3.83604 73.9132 3.10837 73.7159 2.6397C73.5432 2.14637 73.1978 1.8257 72.6798 1.6777C72.1865 1.5297 71.4342 1.4557 70.4229 1.4557V0.345703H80.4128C82.6082 0.345703 84.3718 0.580036 85.7038 1.0487C87.0359 1.4927 87.9978 2.14637 88.5899 3.0097C89.1819 3.84837 89.4779 4.88437 89.4779 6.1177C89.4779 7.77037 88.9845 9.01604 87.9978 9.8547C87.0112 10.6687 85.7532 11.2854 84.2239 11.7047V11.8527C85.2845 12.0254 86.2959 12.346 87.2579 12.8147C88.2445 13.2834 89.0585 13.9494 89.6999 14.8127C90.3412 15.6514 90.6618 16.749 90.6618 18.1057C90.6618 20.2024 89.8725 21.818 88.2939 22.9527C86.7399 24.0874 84.5815 24.6547 81.8188 24.6547ZM80.0798 23.2857C80.8692 23.2857 81.6585 23.2364 82.4479 23.1377C83.2372 23.039 83.9525 22.8294 84.5938 22.5087C85.2598 22.1634 85.7902 21.6577 86.1849 20.9917C86.5795 20.301 86.7768 19.3637 86.7768 18.1797C86.7768 16.7737 86.4439 15.6884 85.7779 14.9237C85.1365 14.1344 84.2979 13.5917 83.2618 13.2957C82.2505 12.975 81.1652 12.8147 80.0059 12.8147H77.4158V23.1747C77.8598 23.1994 78.3038 23.224 78.7478 23.2487C79.1918 23.2734 79.6358 23.2857 80.0798 23.2857ZM77.4158 1.8997V11.2607H79.9319C82.1765 11.2607 83.7182 10.8784 84.5569 10.1137C85.3955 9.32437 85.8148 8.09104 85.8148 6.4137C85.8148 4.95837 85.3462 3.8237 84.4089 3.0097C83.4962 2.1957 81.9052 1.7887 79.6358 1.7887C79.2905 1.7887 78.9205 1.80104 78.5258 1.8257C78.1558 1.8257 77.7859 1.85037 77.4158 1.8997Z"
      fill="white" />
  </symbol>
</svg>